<svg xmlns="http://www.w3.org/2000/svg" viewBox="0 0 740 713" role="img" aria-label="Com’ entre nous"><path d="M706.0,565.0L704.0,561.0L699.0,557.0L689.0,558.0L668.0,576.0L662.0,580.0L653.0,583.0L650.0,576.0L640.0,561.0L618.0,539.0L613.0,532.0L612.0,527.0L614.0,521.0L618.0,518.0L622.0,517.0L629.0,518.0L635.0,524.0L640.0,527.0L646.0,527.0L651.0,523.0L654.0,518.0L654.0,510.0L649.0,502.0L640.0,495.0L630.0,492.0L613.0,490.0L596.0,495.0L579.0,505.0L573.0,513.0L572.0,518.0L570.0,521.0L570.0,530.0L569.0,531.0L570.0,541.0L575.0,553.0L592.0,574.0L605.0,587.0L604.0,589.0L580.0,589.0L576.0,590.0L571.0,593.0L551.0,613.0L545.0,616.0L539.0,616.0L535.0,612.0L533.0,605.0L533.0,596.0L532.0,595.0L533.0,556.0L534.0,555.0L534.0,545.0L537.0,530.0L537.0,522.0L534.0,517.0L527.0,514.0L505.0,515.0L498.0,518.0L495.0,522.0L490.0,547.0L490.0,553.0L485.0,569.0L485.0,573.0L483.0,576.0L481.0,585.0L475.0,600.0L465.0,617.0L461.0,621.0L458.0,622.0L455.0,619.0L453.0,614.0L452.0,603.0L451.0,602.0L453.0,576.0L456.0,564.0L457.0,543.0L458.0,542.0L457.0,528.0L452.0,523.0L444.0,520.0L428.0,520.0L419.0,523.0L414.0,533.0L413.0,543.0L412.0,544.0L412.0,553.0L402.0,563.0L391.0,571.0L389.0,567.0L388.0,559.0L383.0,546.0L371.0,533.0L367.0,530.0L353.0,524.0L333.0,523.0L316.0,530.0L304.0,541.0L299.0,550.0L298.0,554.0L299.0,557.0L290.0,566.0L281.0,584.0L275.0,602.0L275.0,609.0L274.0,610.0L274.0,618.0L275.0,619.0L269.0,631.0L263.0,638.0L254.0,645.0L251.0,646.0L249.0,643.0L249.0,626.0L250.0,625.0L251.0,612.0L253.0,606.0L253.0,600.0L256.0,586.0L257.0,569.0L254.0,554.0L247.0,543.0L243.0,540.0L233.0,536.0L221.0,537.0L210.0,541.0L197.0,550.0L189.0,558.0L180.0,570.0L171.0,585.0L169.0,579.0L170.0,571.0L168.0,563.0L161.0,555.0L152.0,551.0L136.0,551.0L127.0,554.0L123.0,559.0L124.0,593.0L125.0,594.0L124.0,595.0L125.0,599.0L124.0,602.0L125.0,604.0L124.0,606.0L124.0,623.0L125.0,624.0L126.0,662.0L130.0,674.0L133.0,677.0L139.0,679.0L147.0,679.0L148.0,678.0L157.0,679.0L163.0,677.0L169.0,671.0L171.0,667.0L173.0,647.0L176.0,639.0L177.0,631.0L179.0,628.0L180.0,622.0L187.0,602.0L200.0,579.0L212.0,567.0L214.0,569.0L214.0,580.0L213.0,581.0L212.0,594.0L210.0,600.0L210.0,606.0L206.0,626.0L206.0,645.0L209.0,658.0L215.0,669.0L221.0,674.0L234.0,679.0L243.0,679.0L246.0,677.0L252.0,676.0L260.0,671.0L273.0,660.0L282.0,649.0L284.0,650.0L285.0,654.0L292.0,662.0L313.0,672.0L334.0,671.0L342.0,669.0L350.0,665.0L362.0,657.0L374.0,645.0L389.0,614.0L391.0,606.0L391.0,596.0L406.0,585.0L407.0,586.0L407.0,607.0L408.0,608.0L410.0,625.0L414.0,637.0L417.0,643.0L429.0,654.0L437.0,657.0L451.0,657.0L461.0,654.0L467.0,650.0L476.0,641.0L491.0,618.0L501.0,635.0L509.0,642.0L518.0,647.0L524.0,647.0L525.0,648.0L535.0,647.0L555.0,639.0L564.0,632.0L574.0,642.0L587.0,649.0L593.0,651.0L602.0,651.0L603.0,652.0L605.0,651.0L619.0,651.0L635.0,645.0L648.0,637.0L654.0,630.0L660.0,618.0L661.0,603.0L663.0,601.0L681.0,595.0L694.0,588.0L703.0,578.0L705.0,573.0Z M615.0,606.0L617.0,609.0L616.0,620.0L611.0,625.0L607.0,626.0L598.0,618.0L597.0,613.0L603.0,607.0Z M320.0,596.0L330.0,602.0L343.0,605.0L356.0,605.0L358.0,604.0L359.0,605.0L347.0,636.0L340.0,644.0L334.0,647.0L328.0,647.0L323.0,645.0L319.0,641.0L315.0,633.0L314.0,621.0L315.0,620.0L316.0,604.0L317.0,600.0Z M335.0,550.0L343.0,551.0L355.0,562.0L361.0,574.0L361.0,579.0L360.0,580.0L354.0,580.0L347.0,578.0L340.0,574.0L336.0,570.0L332.0,562.0L332.0,553.0Z M588.0,319.0L568.0,319.0L554.0,325.0L545.0,331.0L538.0,338.0L526.0,355.0L517.0,373.0L514.0,383.0L514.0,388.0L512.0,392.0L512.0,402.0L511.0,403.0L512.0,413.0L518.0,433.0L522.0,441.0L527.0,448.0L536.0,456.0L554.0,466.0L562.0,468.0L574.0,468.0L575.0,467.0L583.0,467.0L584.0,466.0L600.0,464.0L606.0,462.0L624.0,452.0L636.0,443.0L654.0,425.0L669.0,399.0L671.0,391.0L670.0,381.0L667.0,375.0L663.0,371.0L656.0,371.0L655.0,370.0L654.0,371.0L649.0,371.0L645.0,374.0L642.0,379.0L638.0,392.0L630.0,406.0L620.0,418.0L608.0,429.0L602.0,433.0L590.0,437.0L580.0,437.0L570.0,432.0L563.0,425.0L558.0,417.0L572.0,410.0L581.0,407.0L604.0,391.0L615.0,377.0L620.0,363.0L619.0,346.0L611.0,333.0L601.0,324.0Z M587.0,351.0L588.0,358.0L587.0,362.0L581.0,372.0L560.0,391.0L556.0,391.0L555.0,390.0L555.0,385.0L559.0,372.0L570.0,353.0L575.0,348.0L581.0,347.0Z M516.0,342.0L513.0,336.0L505.0,330.0L500.0,329.0L488.0,330.0L481.0,334.0L472.0,345.0L459.0,370.0L458.0,369.0L457.0,358.0L453.0,350.0L444.0,346.0L429.0,346.0L423.0,351.0L420.0,361.0L419.0,401.0L418.0,402.0L418.0,415.0L412.0,429.0L405.0,438.0L395.0,454.0L391.0,458.0L388.0,459.0L382.0,456.0L378.0,445.0L377.0,397.0L378.0,396.0L378.0,386.0L379.0,385.0L380.0,373.0L384.0,369.0L408.0,358.0L413.0,353.0L414.0,346.0L408.0,340.0L399.0,337.0L390.0,337.0L385.0,339.0L384.0,338.0L385.0,328.0L383.0,321.0L380.0,316.0L370.0,310.0L360.0,310.0L356.0,312.0L353.0,312.0L348.0,317.0L346.0,321.0L343.0,333.0L342.0,350.0L317.0,359.0L311.0,367.0L311.0,374.0L318.0,381.0L321.0,382.0L334.0,382.0L335.0,381.0L336.0,382.0L336.0,401.0L335.0,402.0L334.0,425.0L322.0,450.0L312.0,459.0L306.0,458.0L303.0,455.0L301.0,449.0L301.0,410.0L303.0,401.0L302.0,400.0L303.0,399.0L303.0,384.0L300.0,372.0L296.0,365.0L289.0,359.0L278.0,355.0L270.0,355.0L258.0,358.0L248.0,364.0L229.0,384.0L219.0,403.0L218.0,402.0L217.0,383.0L212.0,375.0L207.0,373.0L184.0,373.0L181.0,374.0L177.0,378.0L177.0,386.0L176.0,387.0L176.0,401.0L175.0,402.0L175.0,412.0L174.0,413.0L175.0,432.0L171.0,437.0L169.0,442.0L154.0,462.0L145.0,471.0L139.0,475.0L127.0,480.0L113.0,483.0L106.0,482.0L97.0,477.0L92.0,472.0L90.0,464.0L94.0,461.0L109.0,456.0L122.0,448.0L132.0,440.0L147.0,425.0L153.0,416.0L156.0,407.0L156.0,396.0L154.0,388.0L151.0,382.0L142.0,372.0L136.0,368.0L126.0,364.0L109.0,364.0L98.0,367.0L89.0,372.0L79.0,380.0L66.0,395.0L54.0,418.0L53.0,424.0L50.0,431.0L47.0,448.0L46.0,449.0L41.0,449.0L36.0,453.0L34.0,456.0L33.0,465.0L36.0,469.0L49.0,473.0L49.0,476.0L53.0,486.0L65.0,501.0L73.0,507.0L81.0,511.0L89.0,513.0L108.0,513.0L132.0,507.0L143.0,501.0L161.0,488.0L177.0,471.0L178.0,472.0L178.0,481.0L182.0,491.0L194.0,495.0L203.0,495.0L204.0,496.0L205.0,495.0L211.0,495.0L219.0,490.0L222.0,483.0L226.0,453.0L241.0,412.0L251.0,395.0L256.0,390.0L259.0,389.0L260.0,390.0L260.0,401.0L259.0,402.0L258.0,417.0L257.0,418.0L257.0,439.0L258.0,440.0L257.0,453.0L258.0,454.0L258.0,459.0L261.0,469.0L267.0,480.0L275.0,487.0L283.0,491.0L298.0,492.0L306.0,489.0L321.0,481.0L341.0,463.0L343.0,468.0L354.0,480.0L363.0,485.0L373.0,486.0L374.0,487.0L384.0,486.0L398.0,480.0L412.0,469.0L423.0,455.0L426.0,462.0L426.0,465.0L431.0,472.0L440.0,475.0L456.0,474.0L462.0,471.0L466.0,460.0L467.0,415.0L468.0,414.0L468.0,405.0L469.0,404.0L470.0,392.0L473.0,383.0L478.0,373.0L481.0,371.0L494.0,373.0L499.0,372.0L507.0,367.0L515.0,354.0Z M116.0,391.0L121.0,397.0L121.0,407.0L117.0,418.0L103.0,432.0L94.0,437.0L92.0,437.0L91.0,436.0L92.0,427.0L96.0,416.0L107.0,398.0L113.0,392.0Z M593.0,214.0L591.0,207.0L581.0,199.0L569.0,198.0L562.0,201.0L559.0,205.0L559.0,213.0L561.0,218.0L561.0,230.0L555.0,244.0L544.0,256.0L539.0,258.0L533.0,258.0L524.0,249.0L518.0,234.0L515.0,218.0L514.0,178.0L511.0,169.0L505.0,158.0L498.0,151.0L488.0,147.0L483.0,147.0L470.0,152.0L464.0,156.0L457.0,163.0L454.0,169.0L449.0,175.0L445.0,156.0L438.0,145.0L430.0,139.0L424.0,137.0L414.0,137.0L403.0,141.0L387.0,153.0L379.0,162.0L369.0,178.0L364.0,162.0L355.0,152.0L340.0,151.0L324.0,154.0L322.0,156.0L321.0,179.0L319.0,183.0L297.0,204.0L295.0,200.0L294.0,189.0L290.0,179.0L286.0,173.0L273.0,160.0L260.0,153.0L250.0,151.0L242.0,151.0L231.0,154.0L225.0,157.0L210.0,167.0L204.0,173.0L200.0,181.0L199.0,186.0L194.0,189.0L187.0,196.0L180.0,208.0L173.0,227.0L172.0,239.0L166.0,248.0L147.0,267.0L130.0,281.0L117.0,288.0L109.0,288.0L103.0,285.0L96.0,277.0L93.0,267.0L93.0,251.0L95.0,243.0L95.0,236.0L99.0,220.0L110.0,196.0L118.0,184.0L123.0,180.0L125.0,180.0L129.0,183.0L132.0,190.0L131.0,198.0L132.0,199.0L132.0,205.0L134.0,209.0L144.0,210.0L148.0,209.0L160.0,202.0L167.0,191.0L167.0,186.0L168.0,185.0L168.0,178.0L166.0,170.0L163.0,163.0L157.0,156.0L150.0,150.0L139.0,144.0L128.0,141.0L123.0,141.0L109.0,144.0L94.0,151.0L74.0,167.0L60.0,184.0L49.0,206.0L43.0,225.0L43.0,230.0L41.0,237.0L41.0,261.0L42.0,262.0L42.0,271.0L45.0,285.0L51.0,298.0L63.0,313.0L70.0,319.0L81.0,324.0L85.0,324.0L90.0,326.0L102.0,326.0L103.0,325.0L114.0,324.0L126.0,320.0L146.0,309.0L173.0,287.0L176.0,289.0L177.0,292.0L188.0,305.0L204.0,313.0L215.0,314.0L216.0,315.0L230.0,314.0L244.0,310.0L251.0,306.0L253.0,306.0L264.0,298.0L270.0,292.0L284.0,271.0L290.0,258.0L296.0,231.0L314.0,219.0L325.0,209.0L326.0,210.0L326.0,229.0L327.0,230.0L326.0,260.0L325.0,261.0L325.0,289.0L329.0,293.0L336.0,295.0L358.0,294.0L366.0,291.0L369.0,288.0L369.0,270.0L370.0,269.0L369.0,268.0L370.0,267.0L372.0,243.0L375.0,233.0L375.0,229.0L384.0,201.0L393.0,185.0L405.0,172.0L406.0,173.0L406.0,194.0L405.0,195.0L403.0,224.0L401.0,232.0L399.0,259.0L398.0,260.0L398.0,274.0L399.0,278.0L401.0,280.0L411.0,284.0L426.0,284.0L435.0,282.0L440.0,278.0L442.0,272.0L443.0,257.0L446.0,249.0L447.0,240.0L449.0,236.0L455.0,212.0L460.0,200.0L466.0,190.0L471.0,185.0L474.0,184.0L475.0,185.0L474.0,186.0L474.0,199.0L475.0,200.0L475.0,210.0L476.0,211.0L477.0,240.0L478.0,241.0L479.0,251.0L486.0,270.0L494.0,281.0L508.0,289.0L520.0,293.0L533.0,293.0L555.0,287.0L570.0,278.0L576.0,272.0L586.0,257.0L593.0,239.0L593.0,233.0L594.0,232.0Z M218.0,236.0L232.0,242.0L242.0,243.0L255.0,247.0L254.0,251.0L246.0,265.0L235.0,276.0L229.0,280.0L225.0,280.0L220.0,275.0L216.0,265.0L216.0,242.0Z M240.0,182.0L247.0,183.0L254.0,191.0L258.0,201.0L258.0,208.0L259.0,209.0L257.0,212.0L255.0,212.0L243.0,205.0L236.0,196.0L235.0,190.0L237.0,185.0Z M510.0,95.0L503.0,99.0L501.0,103.0L501.0,109.0L499.0,113.0L500.0,122.0L505.0,128.0L518.0,135.0L524.0,142.0L527.0,148.0L529.0,156.0L528.0,169.0L533.0,173.0L541.0,174.0L547.0,166.0L550.0,152.0L549.0,151.0L549.0,131.0L545.0,116.0L540.0,108.0L529.0,99.0L520.0,95.0Z" fill="#111111" fill-rule="evenodd"/><path d="M683.0,56.0L677.0,53.0L659.0,53.0L645.0,59.0L640.0,63.0L633.0,44.0L627.0,38.0L621.0,35.0L607.0,33.0L598.0,36.0L592.0,41.0L586.0,51.0L584.0,58.0L584.0,62.0L582.0,67.0L582.0,85.0L584.0,90.0L586.0,103.0L588.0,106.0L591.0,117.0L598.0,134.0L600.0,143.0L602.0,146.0L604.0,147.0L609.0,144.0L614.0,143.0L616.0,141.0L618.0,141.0L629.0,134.0L631.0,134.0L675.0,107.0L684.0,99.0L690.0,92.0L694.0,84.0L694.0,72.0L690.0,63.0Z" fill="#C61542" fill-rule="evenodd"/></svg>